<svg xmlns="http://www.w3.org/2000/svg" version="1.1" xmlns:xlink="http://www.w3.org/1999/xlink" xmlns:svgjs="http://svgjs.dev/svgjs" width="100%" height="100%" viewBox="0 0 1000 600"><rect width="1000" height="600" x="0" y="0" fill="green"/><g><circle r="166.66666666666666" cx="467.43229166666663" cy="489.65442816473035" fill="#fbeaeb" transform="matrix(0.4156061741868791,0,0,0.4156061741868791,0,96.49660452779975)"/><path d="M453.1179965368539 414.6544532345736L453.1179965368539 564.6544572586732L433.2508344488798 564.6544572586732L357.7380369552082 449.05570440165565L357.7380369552082 564.6544572586732L337.84157226828427 564.6544572586732L337.84157226828427 414.6544532345736L357.7380369552082 414.6544532345736L433.4559526415285 530.751350273738L433.4559526415285 414.6544532345736L453.1179965368539 414.6544532345736ZM575.8079783397266 564.6544572586732L543.2527909064829 503.96877483360777L508.031066968806 503.96877483360777L508.031066968806 564.6544572586732L488.134602281882 564.6544572586732L488.134602281882 414.6544532345736L537.8025075018174 414.6544532345736Q563.1492555934069 414.6544532345736 576.8042667040202 426.1996772208005Q590.429975215684 437.74490120702734 590.429975215684 459.7804556172877L590.429975215684 459.7804556172877Q590.429975215684 473.78709791529894 582.8699046866318 484.1895205424831Q575.3098341575796 494.59194316966716 561.8013360417153 499.7492005848345L561.8013360417153 499.7492005848345L597.0230599793922 563.423748102781L597.0230599793922 564.6544572586732L575.8079783397266 564.6544572586732ZM508.031066968806 430.9466982506704L508.031066968806 487.79374021331023L538.4178620797634 487.79374021331023Q553.15706935152 487.79374021331023 561.859941239615 480.1750644863585Q570.5628131277099 472.5563887594068 570.5628131277099 459.7804556172877L570.5628131277099 459.7804556172877Q570.5628131277099 445.8617211161259 562.2701776249123 438.4481635818229Q553.977542122115 431.03460604751984 538.3299542829141 430.9466982506704L538.3299542829141 430.9466982506704L508.031066968806 430.9466982506704Z " fill="#2f3c7e" transform="matrix(0.4156061741868791,0,0,0.4156061741868791,0,96.49660452779975)"/><path d="M831.1536512170251 414.6544532888591L831.1536512170251 562.630943755571L811.5544989340732 562.630943755571L737.0603758763048 448.5916284808731L737.0603758763048 562.630943755571L717.4323162891008 562.630943755571L717.4323162891008 414.6544532888591L737.0603758763048 414.6544532888591L811.7568500638382 529.1851927358434L811.7568500638382 414.6544532888591L831.1536512170251 414.6544532888591ZM950.4540958656127 562.630943755571L930.7393143656524 562.630943755571Q929.1205053275324 559.364418375079 928.1087496787073 551.0391147504623L928.1087496787073 551.0391147504623Q915.0137408524873 564.654455053221 896.8021391736382 564.654455053221L896.8021391736382 564.654455053221Q880.5562341839347 564.654455053221 870.1206973489117 555.46193230104Q859.7140678181407 546.269409548859 859.7140678181407 532.1337377695618L859.7140678181407 532.1337377695618Q859.7140678181407 514.9627990437898 872.7801693401087 505.4522959448353Q885.8462708620767 495.9707001501329 909.5213530445805 495.9707001501329L909.5213530445805 495.9707001501329L927.7907693319338 495.9707001501329L927.7907693319338 487.3274161787426Q927.7907693319338 477.4700254287624 921.9225865687491 471.6307499698298Q916.0254965013123 465.7914745108973 904.52038940896 465.7914745108973L904.52038940896 465.7914745108973Q894.4606475292148 465.7914745108973 887.6674310299616 470.85025275502204Q880.8453072264562 475.93793830339894 880.8453072264562 483.16476436643427L880.8453072264562 483.16476436643427L861.9399302455557 483.16476436643427Q861.9399302455557 474.92618265457395 867.8081130087404 467.2657470277565Q873.647388467673 459.5764040966869 883.6493157389139 455.0957719376049Q893.6512430101549 450.64404708277516 905.6477742747935 450.64404708277516L905.6477742747935 450.64404708277516Q924.6687804727026 450.64404708277516 935.4222976544992 460.12564287747756Q946.2047221405479 469.6361459764321 946.609424400078 486.3156605299177L946.609424400078 486.3156605299177L946.609424400078 536.9323502754173Q946.609424400078 552.0508703992873 950.4540958656127 561.0121347174511L950.4540958656127 561.0121347174511L950.4540958656127 562.630943755571ZM899.5483330775917 548.2929208465089L899.5483330775917 548.2929208465089Q908.393968178747 548.2929208465089 916.3145695438337 543.7255667746706Q924.2351709089204 539.1582127028322 927.7907693319338 531.8446647270405L927.7907693319338 531.8446647270405L927.7907693319338 509.268060106118L913.0769514675939 509.268060106118Q878.5038155820328 509.268060106118 878.5038155820328 529.503173082617L878.5038155820328 529.503173082617Q878.5038155820328 538.3488081837722 884.4009056494696 543.3208645151406Q890.2979957169065 548.2929208465089 899.5483330775917 548.2929208465089ZM982.7724620195069 426.04393116420283L1001.5911170876509 426.04393116420283L1001.5911170876509 452.6675583804251L1022.1153031066714 452.6675583804251L1022.1153031066714 467.20793241925224L1001.5911170876509 467.20793241925224L1001.5911170876509 535.4002631500539Q1001.5911170876509 541.9911285195421 1004.3373109916043 545.3154685085383Q1007.0835048955578 548.6109011932824 1013.674370265046 548.6109011932824L1013.674370265046 548.6109011932824Q1016.940895645538 548.6109011932824 1022.6356345832098 547.3967944146925L1022.6356345832098 547.3967944146925L1022.6356345832098 562.630943755571Q1015.2064573904096 564.654455053221 1008.1819824571392 564.654455053221L1008.1819824571392 564.654455053221Q995.5783978032055 564.654455053221 989.1898835634822 557.0518340349078Q982.7724620195069 549.4203057123424 982.7724620195069 535.4002631500539L982.7724620195069 535.4002631500539L982.7724620195069 467.20793241925224L962.768607477025 467.20793241925224L962.768607477025 452.6675583804251L982.7724620195069 452.6675583804251L982.7724620195069 426.04393116420283ZM1112.3639069818569 562.630943755571L1111.9592047223268 551.7617973567659Q1100.974429106513 564.654455053221 1079.7275604811894 564.654455053221L1079.7275604811894 564.654455053221Q1062.1519194958873 564.654455053221 1052.9593967437063 554.4501766522151Q1043.7668739915252 544.2458982512092 1043.6512447745167 524.2131364044751L1043.6512447745167 524.2131364044751L1043.6512447745167 452.6675583804251L1062.4698998426607 452.6675583804251L1062.4698998426607 523.7217122321887Q1062.4698998426607 548.6976231060389 1082.7917347319162 548.6976231060389L1082.7917347319162 548.6976231060389Q1104.3276763997615 548.6976231060389 1111.4388732457883 532.6540692461003L1111.4388732457883 532.6540692461003L1111.4388732457883 452.6675583804251L1130.2575283139322 452.6675583804251L1130.2575283139322 562.630943755571L1112.3639069818569 562.630943755571ZM1211.949570130484 452.06050499113013L1211.949570130484 469.54942406367564Q1207.7001964054193 468.8267414573721 1202.699232769799 468.8267414573721L1202.699232769799 468.8267414573721Q1184.1985580484284 468.8267414573721 1177.60769267894 484.5812222747892L1177.60769267894 484.5812222747892L1177.60769267894 562.630943755571L1158.817944915048 562.630943755571L1158.817944915048 452.6675583804251L1177.0873612024016 452.6675583804251L1177.4053415491753 465.3867722513673Q1186.6556789098604 450.64404708277516 1203.6242665058671 450.64404708277516L1203.6242665058671 450.64404708277516Q1209.1166543137742 450.64404708277516 1211.949570130484 452.06050499113013L1211.949570130484 452.06050499113013ZM1272.9439821025026 564.654455053221L1272.9439821025026 564.654455053221Q1250.569728611345 564.654455053221 1236.5496860490566 549.9695444931331Q1222.5296434867678 535.2846339330453 1222.5296434867678 510.71342531872506L1222.5296434867678 510.71342531872506L1222.5296434867678 507.2445488084681Q1222.5296434867678 490.88301460175603 1228.7736212052305 478.0192642095531Q1235.0175989236932 465.1844211216023 1246.2625402777758 457.8997804500627Q1257.478574327607 450.64404708277516 1270.602490458079 450.64404708277516L1270.602490458079 450.64404708277516Q1292.0228029089158 450.64404708277516 1303.9326122607981 464.7508115578202Q1315.8135143084282 478.88648333711734 1315.8135143084282 505.2210375108182L1315.8135143084282 505.2210375108182L1315.8135143084282 513.0260096588963L1241.31939125066 513.0260096588963Q1241.72409351019 529.300821952852 1250.8298943496143 539.3027492240928Q1259.935695189039 549.3046764953339 1273.9557377513274 549.3046764953339L1273.9557377513274 549.3046764953339Q1283.899850414064 549.3046764953339 1290.808696130326 545.257653900034Q1297.7175418465877 541.1817240004821 1302.9208566119732 534.4752294139853L1302.9208566119732 534.4752294139853L1314.3970564000733 543.4364937321491Q1300.5793649675497 564.654455053221 1272.9439821025026 564.654455053221ZM1270.602490458079 466.0805475534187L1270.602490458079 466.0805475534187Q1259.2130125827352 466.0805475534187 1251.4947623474136 474.37694387378326Q1243.776512112092 482.6444328898957 1241.9264446399548 497.58950918825286L1241.9264446399548 497.58950918825286L1297.023766544536 497.58950918825286L1297.023766544536 496.1730512798979Q1296.2143620254765 481.83502837083574 1289.3055163092145 473.9722416142533Q1282.396670592953 466.0805475534187 1270.602490458079 466.0805475534187ZM1478.4171007267237 562.630943755571L1446.3010857025943 502.76391664938615L1411.5545059915207 502.76391664938615L1411.5545059915207 562.630943755571L1391.9264464043163 562.630943755571L1391.9264464043163 414.6544532888591L1440.9243271116961 414.6544532888591Q1465.9291452897987 414.6544532888591 1479.3999490712963 426.04393116420283Q1492.841845548542 437.4334090395466 1492.841845548542 459.1717018371569L1492.841845548542 459.1717018371569Q1492.841845548542 472.9893932696805 1485.3837610514897 483.2514862791907Q1477.925676554437 493.5135792887009 1464.5994092942 498.6012648370778L1464.5994092942 498.6012648370778L1499.345989005274 561.4168369769811L1499.345989005274 562.630943755571L1478.4171007267237 562.630943755571ZM1411.5545059915207 430.72691445304974L1411.5545059915207 486.80708470220407L1441.5313805009914 486.80708470220407Q1456.0717545398184 486.80708470220407 1464.6572239027041 479.2911855966473Q1473.2426932655903 471.7752864910906 1473.2426932655903 459.1717018371569L1473.2426932655903 459.1717018371569Q1473.2426932655903 445.44073231738975 1465.0619261622342 438.1271843415979Q1456.8811590588784 430.8136363658062 1441.4157512839824 430.72691445304974L1441.4157512839824 430.72691445304974L1411.5545059915207 430.72691445304974ZM1562.8842437514809 564.654455053221L1562.8842437514809 564.654455053221Q1540.5099902603233 564.654455053221 1526.489947698035 549.9695444931331Q1512.4699051357466 535.2846339330453 1512.4699051357466 510.71342531872506L1512.4699051357466 510.71342531872506L1512.4699051357466 507.2445488084681Q1512.4699051357466 490.88301460175603 1518.7138828542088 478.0192642095531Q1524.9578605726715 465.1844211216023 1536.2028019267545 457.8997804500627Q1547.4188359765853 450.64404708277516 1560.5427521070574 450.64404708277516L1560.5427521070574 450.64404708277516Q1581.9919718621463 450.64404708277516 1593.8728739097764 464.7508115578202Q1605.7537759574066 478.88648333711734 1605.7537759574066 505.2210375108182L1605.7537759574066 505.2210375108182L1605.7537759574066 513.0260096588963L1531.2596528996382 513.0260096588963Q1531.6643551591683 529.300821952852 1540.7701559985926 539.3027492240928Q1549.8759568380174 549.3046764953339 1563.8959994003058 549.3046764953339L1563.8959994003058 549.3046764953339Q1573.8401120630424 549.3046764953339 1580.748957779304 545.257653900034Q1587.657803495566 541.1817240004821 1592.8611182609516 534.4752294139853L1592.8611182609516 534.4752294139853L1604.3373180490516 543.4364937321491Q1590.519626616528 564.654455053221 1562.8842437514809 564.654455053221ZM1560.5427521070574 466.0805475534187L1560.5427521070574 466.0805475534187Q1549.153274231714 466.0805475534187 1541.435023996392 474.37694387378326Q1533.7167737610703 482.6444328898957 1531.866706288933 497.58950918825286L1531.866706288933 497.58950918825286L1586.9640281935149 497.58950918825286L1586.9640281935149 496.1730512798979Q1586.1546236744548 481.83502837083574 1579.2457779581928 473.9722416142533Q1572.3369322419312 466.0805475534187 1560.5427521070574 466.0805475534187ZM1691.5217476735102 533.4634737651603L1691.5217476735102 533.4634737651603Q1691.5217476735102 525.831945442595 1685.798101431586 521.6114790217823Q1680.04554788541 517.4199199052218 1665.765339584852 514.3557456544949Q1651.4851312842943 511.32047870802 1643.1020130511733 507.0421976787031Q1634.7188948180524 502.76391664938615 1630.7007795270047 496.86682658194934Q1626.682664235957 490.9697365145125 1626.682664235957 482.84678401966073L1626.682664235957 482.84678401966073Q1626.682664235957 469.3470729339107 1638.1299567198048 459.98110635621686Q1649.5483418994008 450.64404708277516 1667.35524131872 450.64404708277516L1667.35524131872 450.64404708277516Q1686.0582671698553 450.64404708277516 1697.6790034792166 460.2990867029904Q1709.3286470928292 469.9541263232056 1709.3286470928292 484.98592453431917L1709.3286470928292 484.98592453431917L1690.4232701119286 484.98592453431917Q1690.4232701119286 477.2676742989974 1683.8613120466925 471.68856457833414Q1677.2993539814565 466.0805475534187 1667.35524131872 466.0805475534187L1667.35524131872 466.0805475534187Q1657.09314830921 466.0805475534187 1651.2827801545295 470.56117971250063Q1645.5013193041013 475.0418118715825 1645.5013193041013 482.2397306303658L1645.5013193041013 482.2397306303658Q1645.5013193041013 489.06185443387113 1650.8780778949995 492.50182363987597Q1656.2548364858976 495.9707001501329 1670.3326936566905 499.12159631361635Q1684.4105508274833 502.2724924770998 1693.169464015882 506.6374954191731Q1701.899469900029 511.00249836124647 1706.1199363208416 517.1597541669526Q1710.340402741654 523.2881026684065 1710.340402741654 532.1337377695618L1710.340402741654 532.1337377695618Q1710.340402741654 546.876462938154 1698.5462226067807 555.7799126478135Q1686.7520424719069 564.654455053221 1667.9622947080147 564.654455053221L1667.9622947080147 564.654455053221Q1654.7516566647864 564.654455053221 1644.5762855680327 560.0003790686262Q1634.4298217755309 555.3173957797793 1628.677268229355 546.9342775466582Q1622.9247146831785 538.5511593135373 1622.9247146831785 528.7804904763134L1622.9247146831785 528.7804904763134L1641.743369751323 528.7804904763134Q1642.2347939236092 538.2331789667637 1649.3170834653838 543.7833813831749Q1656.3704657029061 549.3046764953339 1667.9622947080147 549.3046764953339L1667.9622947080147 549.3046764953339Q1678.6290899770552 549.3046764953339 1685.0754188252827 544.9974881617647Q1691.5217476735102 540.6902998281957 1691.5217476735102 533.4634737651603ZM1780.4695228573491 564.654455053221L1780.4695228573491 564.654455053221Q1758.095269366192 564.654455053221 1744.0752268039032 549.9695444931331Q1730.0551842416148 535.2846339330453 1730.0551842416148 510.71342531872506L1730.0551842416148 510.71342531872506L1730.0551842416148 507.2445488084681Q1730.0551842416148 490.88301460175603 1736.299161960077 478.0192642095531Q1742.5431396785398 465.1844211216023 1753.7880810326228 457.8997804500627Q1765.0041150824536 450.64404708277516 1778.128031212926 450.64404708277516L1778.128031212926 450.64404708277516Q1799.5772509680146 450.64404708277516 1811.4581530156447 464.7508115578202Q1823.3390550632748 478.88648333711734 1823.3390550632748 505.2210375108182L1823.3390550632748 505.2210375108182L1823.3390550632748 513.0260096588963L1748.8449320055065 513.0260096588963Q1749.2496342650365 529.300821952852 1758.3554351044609 539.3027492240928Q1767.4612359438856 549.3046764953339 1781.481278506174 549.3046764953339L1781.481278506174 549.3046764953339Q1791.4253911689111 549.3046764953339 1798.3342368851727 545.257653900034Q1805.2430826014343 541.1817240004821 1810.4463973668198 534.4752294139853L1810.4463973668198 534.4752294139853L1821.92259715492 543.4364937321491Q1808.1049057223963 564.654455053221 1780.4695228573491 564.654455053221ZM1778.128031212926 466.0805475534187L1778.128031212926 466.0805475534187Q1766.7385533375823 466.0805475534187 1759.0203031022602 474.37694387378326Q1751.3020528669385 482.6444328898957 1749.4519853948013 497.58950918825286L1749.4519853948013 497.58950918825286L1804.5493072993831 497.58950918825286L1804.5493072993831 496.1730512798979Q1803.739902780323 481.83502837083574 1796.8310570640615 473.9722416142533Q1789.9222113477995 466.0805475534187 1778.128031212926 466.0805475534187ZM1898.2378803805736 452.06050499113013L1898.2378803805736 469.54942406367564Q1893.9885066555084 468.8267414573721 1888.9875430198886 468.8267414573721L1888.9875430198886 468.8267414573721Q1870.4868682985175 468.8267414573721 1863.8960029290297 484.5812222747892L1863.8960029290297 484.5812222747892L1863.8960029290297 562.630943755571L1845.1062551651376 562.630943755571L1845.1062551651376 452.6675583804251L1863.3756714524907 452.6675583804251L1863.6936517992644 465.3867722513673Q1872.9439891599495 450.64404708277516 1889.9125767559567 450.64404708277516L1889.9125767559567 450.64404708277516Q1895.4049645638634 450.64404708277516 1898.2378803805736 452.06050499113013L1898.2378803805736 452.06050499113013ZM1925.6709121158556 452.6675583804251L1953.6242753276765 537.1347014051823L1980.8549559331937 452.6675583804251L2000.0783132608676 452.6675583804251L1960.6487502609466 562.630943755571L1946.3107273518845 562.630943755571L1906.4764620924338 452.6675583804251L1925.6709121158556 452.6675583804251ZM2062.4602758369892 564.654455053221L2062.4602758369892 564.654455053221Q2040.1149296500835 564.654455053221 2026.0948870877946 549.9695444931331Q2012.0748445255063 535.2846339330453 2012.0748445255063 510.71342531872506L2012.0748445255063 510.71342531872506L2012.0748445255063 507.2445488084681Q2012.0748445255063 490.88301460175603 2018.318822243969 478.0192642095531Q2024.5627999624317 465.1844211216023 2035.8077413165142 457.8997804500627Q2047.0237753663455 450.64404708277516 2060.147691496818 450.64404708277516L2060.147691496818 450.64404708277516Q2081.5680039476547 450.64404708277516 2093.477813299537 464.7508115578202Q2105.358715347167 478.88648333711734 2105.358715347167 505.2210375108182L2105.358715347167 505.2210375108182L2105.358715347167 513.0260096588963L2030.8645922893984 513.0260096588963Q2031.2692945489284 529.300821952852 2040.3750953883527 539.3027492240928Q2049.4519889235253 549.3046764953339 2063.5009387900664 549.3046764953339L2063.5009387900664 549.3046764953339Q2073.4450514528025 549.3046764953339 2080.353897169065 545.257653900034Q2087.2627428853266 541.1817240004821 2092.466057650712 534.4752294139853L2092.466057650712 534.4752294139853L2103.942257438812 543.4364937321491Q2090.1245660062887 564.654455053221 2062.4602758369892 564.654455053221ZM2060.147691496818 466.0805475534187L2060.147691496818 466.0805475534187Q2048.758213621474 466.0805475534187 2041.039963386152 474.37694387378326Q2033.2928058465782 482.6444328898957 2031.4716456786932 497.58950918825286L2031.4716456786932 497.58950918825286L2086.5689675832746 497.58950918825286L2086.5689675832746 496.1730512798979Q2085.7595630642154 481.83502837083574 2078.8218100437007 473.9722416142533Q2071.912964327439 466.0805475534187 2060.147691496818 466.0805475534187Z " fill=" rgb(8, 223, 8)" transform="matrix(0.4156061741868791,0,0,0.4156061741868791,0,96.49660452779975)"/></g></svg>